PathFileType	4	(X/Y/Z)	./resultDataOpenSim/trcMotMarkerGrf/sub10/qtm-05-05.trc
DataRate	CameraRate	NumFrames	NumMarkers	Units	OrigDataRate	OrigDataStartFrame	OrigNumFrames
250.000000	250.000000	7	24	m	250.000000	1	517
Frame#	Time	L.Toe.Tip			R.Toe.Tip			L.Ankle.Lat			R.Ankle.Lat			L.Ankle.Med			R.Ankle.Med			L.Heel			R.Heel			L.Knee.Lat			R.Knee.Lat			L.Knee.Med			R.Knee.Med			L.Thigh.Upper			R.Thigh.Upper			L.ASIS			R.ASIS			V.Sacral			L.Acromium			R.Acromium			C7			L.Elbow			R.Elbow			L.Wrist.Lat			R.Wrist.Lat
		X1	Y1	Z1	X2	Y2	Z2	X3	Y3	Z3	X4	Y4	Z4	X5	Y5	Z5	X6	Y6	Z6	X7	Y7	Z7	X8	Y8	Z8	X9	Y9	Z9	X10	Y10	Z10	X11	Y11	Z11	X12	Y12	Z12	X13	Y13	Z13	X14	Y14	Z14	X15	Y15	Z15	X16	Y16	Z16	X17	Y17	Z17	X18	Y18	Z18	X19	Y19	Z19	X20	Y20	Z20	X21	Y21	Z21	X22	Y22	Z22	X23	Y23	Z23	X24	Y24	Z24

1	0	-1.4966229	0.038059604	-0.16412263	-0.89438512	0.088601626	0.0097064957	-1.6296896	0.066213095	-0.17377328	-1.0331278	0.068335623	0.03736605	-1.6200646	0.083786679	-0.089688014	-1.0166609	0.10394176	-0.041926621	NaN	NaN	NaN	-1.0690585	0.032083889	-0.015532975	-1.4771654	0.42607653	-0.20914801	-1.1360566	0.45384699	0.069082073	-1.4704998	0.3991512	-0.088428554	-1.1209433	0.46222165	-0.060249794	-1.3883905	0.81001477	-0.26322335	-1.3088803	0.82761773	0.11615945	-1.3072901	0.90954987	-0.21170881	-1.2534401	0.91978526	0.02900268	-1.4754444	0.92605954	-0.048011316	-1.3058959	1.3806638	-0.24077408	-1.2869148	1.3741171	0.083421538	-1.37787	1.416215	-0.077369314	-1.407175	1.0481471	-0.30106817	-1.4416256	1.0541875	0.13130153	-1.247176	0.85932967	-0.30097037	-1.3186486	0.84698571	0.18418523
2	0.004	-1.4966567	0.038039781	-0.16413248	-0.88497152	0.090138577	0.0097472401	-1.6294451	0.066608958	-0.17379288	-1.0234405	0.068540934	0.037859449	-1.6192113	0.084184841	-0.089804117	-1.0077794	0.10441515	-0.041314797	NaN	NaN	NaN	-1.0590943	0.032111134	-0.014855192	-1.4748781	0.42551547	-0.20905384	-1.1320045	0.4527063	0.069987994	-1.4681599	0.39858982	-0.088454174	-1.116243	0.46119785	-0.05928164	-1.3844729	0.80906974	-0.26317073	-1.3043596	0.82660142	0.11638688	-1.3031796	0.90841718	-0.21185279	-1.2491538	0.91883358	0.028810205	-1.470859	0.92479116	-0.047481378	-1.3014144	1.3794354	-0.24077349	-1.2831079	1.3729628	0.083415506	-1.3738154	1.4150855	-0.077669685	-1.4019024	1.0467719	-0.30083428	-1.4384922	1.0532158	0.13101261	-1.2410724	0.85855767	-0.30057138	-1.3168467	0.84572639	0.18485344
3	0.008	-1.4966932	0.038020186	-0.16413502	-0.87559394	0.09171278	0.0099084704	-1.6292093	0.067045278	-0.17383416	-1.0139871	0.06876005	0.038399643	-1.6183745	0.08461525	-0.089917984	-0.99898903	0.10489574	-0.040692898	NaN	NaN	NaN	-1.0493412	0.032113735	-0.014164103	-1.4725844	0.42498572	-0.20899806	-1.1278419	0.45160902	0.070866327	-1.4657895	0.39801206	-0.088478046	-1.1115238	0.46020616	-0.058320768	-1.3805347	0.80811055	-0.26313342	-1.2997938	0.82560988	0.11660688	-1.2989871	0.9073073	-0.21195316	-1.2447457	0.91789195	0.028667265	-1.4662538	0.92341848	-0.047072675	-1.2969287	1.3782244	-0.24075567	-1.2792829	1.3718524	0.083448773	-1.3697283	1.4139641	-0.07791003	-1.3965382	1.0453782	-0.30051859	-1.4352533	1.052304	0.13075199	-1.2349609	0.85777157	-0.30015136	-1.315047	0.84448568	0.1855057
4	0.012	-1.4967325	0.038003099	-0.16413197	-0.86627521	0.093337604	0.010243543	-1.6289844	0.067543821	-0.17390827	-1.0048716	0.06899748	0.039026061	-1.6175745	0.085092107	-0.090038934	-0.99038823	0.10535884	-0.040046683	NaN	NaN	NaN	-1.0399206	0.032077251	-0.013416511	-1.4702628	0.42449496	-0.2089665	-1.123522	0.45057538	0.07171472	-1.4634067	0.3974209	-0.088491181	-1.1067615	0.45926912	-0.057370717	-1.3765619	0.8071354	-0.2631036	-1.2952207	0.82462965	0.11682355	-1.2946854	0.90622288	-0.21199909	-1.2402169	0.91695784	0.02858295	-1.4616383	0.92196557	-0.046791893	-1.2924243	1.3770313	-0.24071494	-1.2754436	1.3707912	0.083536782	-1.3655823	1.4128533	-0.078053947	-1.3910738	1.0439518	-0.30019772	-1.4318355	1.0514787	0.13052289	-1.2288378	0.85697231	-0.29970252	-1.3132415	0.84326588	0.18614366
5	0.016	-1.4967697	0.037990773	-0.16413125	-0.85718079	0.09493926	0.010705935	-1.6287656	0.068098597	-0.17401176	-0.99611968	0.069239075	0.03975542	-1.6168435	0.085611878	-0.090174747	-0.98206334	0.1057638	-0.039364761	NaN	NaN	NaN	-1.0308836	0.032004681	-0.012584801	-1.4678983	0.42403285	-0.20893033	-1.119055	0.44961325	0.072549598	-1.4610264	0.39684406	-0.088484867	-1.1019485	0.45839703	-0.056434089	-1.3725587	0.80616201	-0.26306336	-1.2906742	0.82365059	0.11705337	-1.2903003	0.90515508	-0.21199703	-1.2356549	0.91602156	0.028547854	-1.4570544	0.92055695	-0.046549047	-1.287899	1.3758461	-0.2406525	-1.2716054	1.3697598	0.083671209	-1.3613785	1.411752	-0.07810879	-1.3855909	1.0424997	-0.29999359	-1.4282186	1.0507322	0.13030925	-1.2227176	0.8561721	-0.29923226	-1.3114326	0.8420589	0.1867788
6	0.02	-1.4967974	0.037982276	-0.16414108	-0.84858272	0.09637777	0.01120057	-1.6285417	0.068692356	-0.17413312	-0.98774076	0.069459454	0.04058024	-1.6162014	0.086168904	-0.090324169	-0.97404909	0.10607923	-0.038642919	NaN	NaN	NaN	-1.0222407	0.031900169	-0.011683134	-1.4655046	0.42358416	-0.20887949	-1.1144439	0.44873151	0.0733896	-1.4586716	0.39629778	-0.088450761	-1.0970899	0.45758712	-0.055510578	-1.3685319	0.80520405	-0.26299193	-1.2861341	0.82268617	0.11731373	-1.2858676	0.90409329	-0.2119518	-1.2310918	0.91508066	0.028566224	-1.452519	0.91926812	-0.046269572	-1.2833607	1.3746636	-0.24056836	-1.2677439	1.3687473	0.083829533	-1.3571327	1.4106594	-0.078111116	-1.3801538	1.0410429	-0.29991417	-1.424421	1.0500399	0.13009432	-1.2166114	0.85538071	-0.29874618	-1.3096311	0.84085434	0.18741985
7	0.024	-1.4968081	0.037974206	-0.16416601	-0.84061447	0.097562041	0.011679327	-1.6282986	0.069312549	-0.17425914	-0.97973975	0.069636883	0.041474886	-1.6156194	0.086761557	-0.090487382	-0.96636292	0.10628775	-0.037882953	NaN	NaN	NaN	-1.0139923	0.031751435	-0.010726667	-1.4631362	0.42313776	-0.20881093	-1.1096997	0.44792966	0.074235736	-1.4563786	0.39576435	-0.088386975	-1.0921998	0.45682914	-0.054600449	-1.3644842	0.80426071	-0.26286944	-1.2816181	0.82174228	0.11760122	-1.2814211	0.90303087	-0.21186814	-1.2264897	0.91414302	0.028645154	-1.4480081	0.91807451	-0.045946199	-1.2788134	1.3734936	-0.2404644	-1.2638245	1.3677585	0.083992762	-1.3528608	1.4095793	-0.078101095	-1.3747604	1.039598	-0.29988189	-1.4204886	1.0493818	0.12987375	-1.2105197	0.85460555	-0.29823942	-1.307843	0.83965104	0.18806985
